<svg width="630" height="729" viewBox="0 0 630 729" fill="none" xmlns="http://www.w3.org/2000/svg">
<path d="M557.509 271H465L475.64 136.932H557.509L598 110L557.509 271Z" fill="white" fill-opacity="0.2"/>
<path d="M309.85 442C282.385 457.462 226.364 489.134 222 492.131L346.597 614L371 544.566L309.85 442Z" fill="white" fill-opacity="0.2"/>
<path d="M610 50.4328L417 37L445.158 117H548.698L604.72 82.6716L610 50.4328Z" fill="white" fill-opacity="0.2"/>
<path d="M386.425 521C376.372 549.438 355.414 608.496 352 617.229L444.747 708L486 546.565L386.425 521Z" fill="white" fill-opacity="0.2"/>
<path d="M390.971 39.1818C342.552 38.1212 245.372 36 244 36L255.723 141L429 136.661L390.971 39.1818Z" fill="white" fill-opacity="0.2"/>
<path d="M334.274 65.88C340.077 65.88 344.514 67.864 347.586 71.832C350.701 75.7573 352.258 81.2613 352.258 88.344C352.258 93.2933 351.426 97.496 349.762 100.952C348.141 104.365 345.837 106.947 342.85 108.696C339.863 110.445 336.365 111.32 332.354 111.32C328.13 111.32 324.738 110.552 322.178 109.016L323.522 106.392C325.655 107.757 328.599 108.44 332.354 108.44C337.517 108.44 341.57 106.776 344.514 103.448C347.501 100.077 348.994 95.2133 348.994 88.856C348.994 86.8933 348.866 85.1013 348.61 83.48C347.714 86.3813 345.965 88.6427 343.362 90.264C340.802 91.8853 337.794 92.696 334.338 92.696C331.394 92.696 328.77 92.1627 326.466 91.096C324.205 89.9867 322.455 88.4293 321.218 86.424C319.981 84.376 319.362 82.0293 319.362 79.384C319.362 76.696 320.002 74.328 321.282 72.28C322.562 70.232 324.333 68.6533 326.594 67.544C328.855 66.4347 331.415 65.88 334.274 65.88ZM334.786 89.88C337.175 89.88 339.309 89.4107 341.186 88.472C343.106 87.5333 344.578 86.2533 345.602 84.632C346.669 83.0107 347.202 81.1973 347.202 79.192C347.202 77.4 346.69 75.6933 345.666 74.072C344.685 72.4507 343.234 71.1493 341.314 70.168C339.394 69.1867 337.09 68.696 334.402 68.696C330.903 68.696 328.066 69.6773 325.89 71.64C323.714 73.56 322.626 76.12 322.626 79.32C322.626 82.52 323.714 85.08 325.89 87C328.066 88.92 331.031 89.88 334.786 89.88Z" fill="#F8F8F8"/>
<path d="M517.003 54.2V99H513.739V57.144H502.795V54.2H517.003Z" fill="#F8F8F8"/>
<path d="M546.877 210.056V213H516.093V210.696L535.037 191.88C537.511 189.405 539.175 187.293 540.029 185.544C540.925 183.752 541.373 181.917 541.373 180.04C541.373 177.181 540.391 174.941 538.429 173.32C536.509 171.699 533.714 170.888 530.045 170.888C527.229 170.888 524.754 171.315 522.621 172.168C520.53 173.021 518.717 174.323 517.181 176.072L514.877 174.024C516.583 172.061 518.738 170.547 521.341 169.48C523.986 168.413 526.973 167.88 530.301 167.88C534.695 167.88 538.194 168.947 540.797 171.08C543.399 173.213 544.701 176.093 544.701 179.72C544.701 182.024 544.189 184.221 543.165 186.312C542.141 188.403 540.221 190.835 537.405 193.608L520.893 210.056H546.877Z" fill="#F8F8F8"/>
<path d="M259.194 201L236 233.523L321.044 397L385.758 360.16L431 270.075L259.194 201Z" fill="white" fill-opacity="0.2"/>
<path d="M248 200.66C202.507 260.627 111.173 380.849 109.782 382L13 289.027L53.857 150L248 200.66Z" fill="white" fill-opacity="0.2"/>
<path d="M626 40.4839L450.321 723L4 294.092L87.9819 4L626 40.4839Z" stroke="white" stroke-opacity="0.6" stroke-width="6"/>
<path d="M232.429 20.8378L252 193L56 141.496L92.8399 11L232.429 20.8378Z" fill="white" fill-opacity="0.2"/>
<path d="M135.89 65.2V110H132.626V68.144H121.682V65.2H135.89ZM164.825 110.32C161.411 110.32 158.361 109.403 155.673 107.568C153.027 105.691 150.958 103.045 149.465 99.632C148.014 96.2187 147.289 92.208 147.289 87.6C147.289 82.992 148.014 78.9813 149.465 75.568C150.958 72.1547 153.027 69.5307 155.673 67.696C158.361 65.8187 161.411 64.88 164.825 64.88C168.238 64.88 171.267 65.8187 173.913 67.696C176.601 69.5307 178.67 72.1547 180.121 75.568C181.614 78.9813 182.361 82.992 182.361 87.6C182.361 92.208 181.614 96.2187 180.121 99.632C178.67 103.045 176.601 105.691 173.913 107.568C171.267 109.403 168.238 110.32 164.825 110.32ZM164.825 107.312C167.641 107.312 170.115 106.544 172.249 105.008C174.425 103.429 176.11 101.168 177.305 98.224C178.499 95.2373 179.097 91.696 179.097 87.6C179.097 83.504 178.499 79.984 177.305 77.04C176.11 74.0533 174.425 71.792 172.249 70.256C170.115 68.6773 167.641 67.888 164.825 67.888C162.009 67.888 159.513 68.6773 157.337 70.256C155.203 71.792 153.539 74.0533 152.345 77.04C151.15 79.984 150.553 83.504 150.553 87.6C150.553 91.696 151.15 95.2373 152.345 98.224C153.539 101.168 155.203 103.429 157.337 105.008C159.513 106.544 162.009 107.312 164.825 107.312Z" fill="#F8F8F8"/>
<path d="M100.172 229.2V274H96.9075V232.144H85.9635V229.2H100.172ZM122.834 229.2V274H119.57V232.144H108.626V229.2H122.834Z" fill="#F8F8F8"/>
<path d="M190.702 433.103C171.402 414.064 130.937 373.95 128 370.331L228.55 238L313 402.283L233.634 443L190.702 433.103Z" fill="white" fill-opacity="0.2"/>
<path d="M389.263 516.214C421.602 524.619 485.183 541.542 487.724 542L514 441.436L411.207 387L337 429.976L389.263 516.214Z" fill="white" fill-opacity="0.2"/>
<path d="M412 377.546L515.99 436L557 278H461.798L412 377.546Z" fill="white" fill-opacity="0.2"/>
<path d="M236.71 341.2V343.504L217.446 386H213.862L232.934 344.144H207.782V352.72H204.582V341.2H236.71Z" fill="#F8F8F8"/>
<path d="M341.801 297.576C344.873 298.387 347.241 299.752 348.905 301.672C350.612 303.592 351.465 305.939 351.465 308.712C351.465 312.637 349.951 315.731 346.921 317.992C343.892 320.211 339.732 321.32 334.441 321.32C329.193 321.32 325.055 320.211 322.025 317.992C319.039 315.731 317.545 312.637 317.545 308.712C317.545 305.896 318.356 303.549 319.977 301.672C321.641 299.752 324.009 298.387 327.081 297.576C324.521 296.723 322.559 295.443 321.193 293.736C319.828 292.029 319.145 289.939 319.145 287.464C319.145 283.88 320.532 281.064 323.305 279.016C326.079 276.925 329.791 275.88 334.441 275.88C339.092 275.88 342.825 276.925 345.641 279.016C348.457 281.107 349.865 283.923 349.865 287.464C349.865 289.896 349.161 291.987 347.753 293.736C346.388 295.443 344.404 296.723 341.801 297.576ZM322.409 287.528C322.409 290.216 323.455 292.349 325.545 293.928C327.679 295.507 330.644 296.296 334.441 296.296C338.239 296.296 341.204 295.528 343.337 293.992C345.513 292.413 346.601 290.28 346.601 287.592C346.601 284.861 345.492 282.707 343.273 281.128C341.097 279.507 338.153 278.696 334.441 278.696C330.729 278.696 327.785 279.485 325.609 281.064C323.476 282.643 322.409 284.797 322.409 287.528ZM334.441 318.504C338.751 318.504 342.121 317.629 344.553 315.88C346.985 314.131 348.201 311.741 348.201 308.712C348.201 305.725 346.985 303.357 344.553 301.608C342.121 299.859 338.751 298.984 334.441 298.984C330.175 298.984 326.825 299.859 324.393 301.608C322.004 303.357 320.809 305.725 320.809 308.712C320.809 311.741 322.004 314.131 324.393 315.88C326.783 317.629 330.132 318.504 334.441 318.504Z" fill="#F8F8F8"/>
<path d="M489.308 338.72C494.258 338.848 498.012 340.064 500.572 342.368C503.175 344.629 504.476 347.637 504.476 351.392C504.476 353.909 503.879 356.149 502.684 358.112C501.49 360.032 499.698 361.547 497.308 362.656C494.962 363.765 492.124 364.32 488.796 364.32C485.554 364.32 482.503 363.787 479.644 362.72C476.786 361.611 474.567 360.139 472.988 358.304L474.652 355.808C476.103 357.429 478.066 358.752 480.54 359.776C483.058 360.8 485.81 361.312 488.796 361.312C492.764 361.312 495.815 360.437 497.948 358.688C500.082 356.896 501.148 354.464 501.148 351.392C501.148 348.277 500.06 345.845 497.884 344.096C495.708 342.347 492.444 341.472 488.092 341.472H485.276V339.104L498.524 322.144H474.652V319.2H502.748V321.504L489.308 338.72Z" fill="#F8F8F8"/>
<path d="M445.959 474.584H436.551V487H433.351V474.584H407.815V472.216L432.135 442.2H435.783L411.911 471.704H433.415V460.76H436.551V471.704H445.959V474.584Z" fill="#F8F8F8"/>
<path d="M415.62 588.952C422.148 588.952 426.884 590.104 429.828 592.408C432.772 594.669 434.244 597.891 434.244 602.072C434.244 604.632 433.647 606.915 432.452 608.92C431.3 610.883 429.551 612.44 427.204 613.592C424.858 614.744 421.978 615.32 418.564 615.32C415.322 615.32 412.271 614.765 409.412 613.656C406.596 612.547 404.399 611.096 402.82 609.304L404.484 606.808C405.892 608.429 407.834 609.752 410.308 610.776C412.826 611.8 415.556 612.312 418.5 612.312C422.511 612.312 425.583 611.395 427.716 609.56C429.892 607.725 430.98 605.272 430.98 602.2C430.98 598.829 429.743 596.269 427.268 594.52C424.836 592.771 420.719 591.896 414.916 591.896H405.828L408.196 570.2H431.94V573.144H410.948L409.22 588.952H415.62Z" fill="#F8F8F8"/>
<path d="M315.69 516.504C318.634 516.504 321.237 517.059 323.498 518.168C325.802 519.235 327.573 520.792 328.81 522.84C330.047 524.845 330.666 527.171 330.666 529.816C330.666 532.504 330.026 534.872 328.746 536.92C327.466 538.968 325.695 540.547 323.434 541.656C321.173 542.765 318.613 543.32 315.754 543.32C309.951 543.32 305.493 541.357 302.378 537.432C299.306 533.464 297.77 527.939 297.77 520.856C297.77 515.907 298.581 511.725 300.202 508.312C301.866 504.856 304.191 502.253 307.178 500.504C310.165 498.755 313.663 497.88 317.674 497.88C321.898 497.88 325.29 498.648 327.85 500.184L326.506 502.808C324.373 501.443 321.429 500.76 317.674 500.76C312.511 500.76 308.437 502.445 305.45 505.816C302.506 509.144 301.034 513.987 301.034 520.344C301.034 522.307 301.162 524.099 301.418 525.72C302.314 522.819 304.042 520.557 306.602 518.936C309.205 517.315 312.234 516.504 315.69 516.504ZM315.626 540.504C319.125 540.504 321.962 539.544 324.138 537.624C326.314 535.661 327.402 533.08 327.402 529.88C327.402 526.68 326.314 524.12 324.138 522.2C321.962 520.28 318.997 519.32 315.242 519.32C312.853 519.32 310.698 519.789 308.778 520.728C306.901 521.667 305.429 522.947 304.362 524.568C303.338 526.189 302.826 528.003 302.826 530.008C302.826 531.8 303.317 533.507 304.298 535.128C305.322 536.749 306.794 538.051 308.714 539.032C310.634 540.013 312.938 540.504 315.626 540.504Z" fill="#F8F8F8"/>
</svg>
