<svg width="67" height="32" viewBox="0 0 67 32" fill="none" xmlns="http://www.w3.org/2000/svg">
<path d="M1 30.4905L9.38421 25.6995C10.9214 24.8211 12.8084 24.8211 14.3456 25.6995L20.2491 29.073C21.7863 29.9513 23.6733 29.9513 25.2105 29.073L31.114 25.6995C32.6512 24.8211 34.5383 24.8211 36.0754 25.6995L41.9789 29.073C43.5161 29.9513 45.4032 29.9513 46.9403 29.073L52.8438 25.6995C54.381 24.8211 56.2681 24.8211 57.8052 25.6995L66.1895 30.4905" stroke="#1D1F1D" stroke-width="2"/>
<path d="M1 19.6255L8.95872 13.9407C10.6972 12.6989 13.0326 12.6989 14.7711 13.9407L19.8236 17.5497C21.5621 18.7914 23.8975 18.7914 25.636 17.5497L30.6885 13.9407C32.427 12.6989 34.7624 12.6989 36.5009 13.9407L41.5534 17.5497C43.2919 18.7914 45.6273 18.7914 47.3658 17.5497L52.4184 13.9407C54.1568 12.6989 56.4922 12.6989 58.2307 13.9407L66.1895 19.6255" stroke="#858685" stroke-width="2"/>
<path d="M1 7.20852L9.38421 2.41754C10.9214 1.53916 12.8084 1.53916 14.3456 2.41754L20.2491 5.79098C21.7863 6.66936 23.6733 6.66936 25.2105 5.79098L31.114 2.41754C32.6512 1.53916 34.5383 1.53916 36.0754 2.41754L41.9789 5.79098C43.5161 6.66936 45.4032 6.66936 46.9403 5.79098L52.8438 2.41754C54.381 1.53916 56.2681 1.53916 57.8052 2.41754L66.1895 7.20852" stroke="#1D1F1D" stroke-width="2"/>
</svg>
