<svg width="65" height="47" viewBox="0 0 65 47" fill="none" xmlns="http://www.w3.org/2000/svg">
<path fill-rule="evenodd" clip-rule="evenodd" d="M63.4634 29.6032C64.1504 31.2618 64.3301 33.0869 63.9799 34.8476C63.6296 36.6084 62.7652 38.2257 61.4957 39.4952C60.2263 40.7646 58.6089 41.6291 56.8482 41.9793C55.0874 42.3295 53.2624 42.1498 51.6038 41.4628C49.9452 40.7758 48.5276 39.6124 47.5302 38.1197C46.5328 36.627 46.0004 34.872 46.0004 33.0768H48.0004C48.0004 34.4765 48.4155 35.8447 49.1931 37.0085C49.9707 38.1723 51.076 39.0794 52.3691 39.615C53.6623 40.1507 55.0852 40.2908 56.458 40.0177C57.8308 39.7447 59.0918 39.0707 60.0815 38.0809C61.0712 37.0912 61.7452 35.8302 62.0183 34.4574C62.2914 33.0847 62.1512 31.6617 61.6156 30.3686C61.08 29.0754 60.1729 27.9702 59.0091 27.1926C57.852 26.4194 56.4929 26.0047 55.1016 25.9999H0V23.9999H55.0774V23.9999C55.0865 23.9999 55.0957 23.9999 55.1049 23.9999H56V24.0469C57.4692 24.197 58.8846 24.704 60.1202 25.5296C61.6129 26.527 62.7763 27.9446 63.4634 29.6032Z" fill="#1D1F1D"/>
<path fill-rule="evenodd" clip-rule="evenodd" d="M29.4623 34H0V32H30V32.0194C31.2864 32.1124 32.5302 32.5375 33.6077 33.2575C34.8347 34.0774 35.7911 35.2427 36.3559 36.6061C36.9206 37.9696 37.0684 39.4698 36.7805 40.9172C36.4925 42.3646 35.7819 43.6941 34.7384 44.7377C33.6949 45.7812 32.3654 46.4918 30.918 46.7797C29.4706 47.0676 27.9703 46.9199 26.6069 46.3551C25.2435 45.7904 24.0781 44.834 23.2582 43.607C22.4384 42.3799 22.0008 40.9373 22.0008 39.4616H24.0008C24.0008 40.5417 24.3211 41.5977 24.9212 42.4958C25.5213 43.394 26.3743 44.094 27.3722 44.5074C28.3702 44.9207 29.4683 45.0289 30.5278 44.8182C31.5872 44.6074 32.5604 44.0873 33.3242 43.3234C34.088 42.5596 34.6082 41.5865 34.8189 40.5271C35.0296 39.4676 34.9215 38.3695 34.5081 37.3715C34.0947 36.3736 33.3947 35.5206 32.4966 34.9205C31.5984 34.3203 30.5425 34 29.4623 34V34Z" fill="#858685"/>
<path fill-rule="evenodd" clip-rule="evenodd" d="M53.353 11.7528C53.9963 10.1996 54.1646 8.49058 53.8367 6.84174C53.5087 5.1929 52.6992 3.67834 51.5104 2.4896C50.3217 1.30085 48.8071 0.491303 47.1583 0.163329C45.5094 -0.164645 43.8004 0.00368283 42.2472 0.647028C40.694 1.29037 39.3665 2.37984 38.4325 3.77766C37.4985 5.17548 37 6.81886 37 8.5H39C39 7.21443 39.3812 5.95772 40.0954 4.8888C40.8097 3.81988 41.8248 2.98676 43.0126 2.49479C44.2003 2.00282 45.5072 1.8741 46.7681 2.1249C48.029 2.3757 49.1872 2.99477 50.0962 3.90381C51.0052 4.81285 51.6243 5.97104 51.8751 7.23192C52.1259 8.49279 51.9972 9.79973 51.5052 10.9874C51.0132 12.1752 50.1801 13.1903 49.1112 13.9046C48.0433 14.6181 46.7879 14.9993 45.5035 15C45.5023 15 45.5012 15 45.5 15L0 15V17H45.5H46V16.9853C47.5054 16.8966 48.9635 16.4086 50.2223 15.5675C51.6202 14.6335 52.7096 13.306 53.353 11.7528Z" fill="#858685"/>
</svg>
