<svg width="32" height="32" viewBox="0 0 32 32" fill="none" xmlns="http://www.w3.org/2000/svg">
<path fill-rule="evenodd" clip-rule="evenodd" d="M15.5556 0C6.96446 0 0 6.96446 0 15.5556C0 24.1467 6.96446 31.1111 15.5556 31.1111C24.1467 31.1111 31.1111 24.1467 31.1111 15.5556C31.1111 6.96446 24.1467 0 15.5556 0ZM20.5097 22.7374C20.5097 22.7374 20.102 23.734 19.0147 23.2583L14.9374 20.1324L12.3098 22.5108C12.3098 22.5108 12.106 22.6694 11.8794 22.5788C11.8794 22.5788 11.6756 22.5561 11.4491 21.8086C11.1999 21.0385 9.9767 17.0292 9.9767 17.0292L5.92207 15.6701C5.92207 15.6701 5.31048 15.4435 5.24253 14.9679C5.17457 14.4922 5.94473 14.2204 5.94473 14.2204L22.05 7.90057C22.05 7.90057 23.3638 7.31163 23.3864 8.28565L20.5097 22.7374ZM20.2605 10.8453C20.2832 10.5055 19.7169 10.8453 19.7169 10.8453L10.8148 16.5081C10.6789 16.5987 10.6336 16.7573 10.6789 16.8932L11.7435 20.3816C11.8115 20.5854 12.106 20.5628 12.1513 20.3363L12.4004 18.207C12.4004 18.1164 12.4457 18.0485 12.5137 18.0031C13.3744 17.233 19.7848 11.4795 20.0567 11.2077C20.3511 10.8906 20.2605 10.8453 20.2605 10.8453Z" fill="#F8F8F8"/>
</svg>
