<svg width="10" height="9" viewBox="0 0 10 9" fill="none" xmlns="http://www.w3.org/2000/svg">
<path d="M0.166611 1.70474C0 2.32473 0 3.18004 0 4.5C0 6.37487 0 7.3123 0.477457 7.96946C0.631657 8.1817 0.8183 8.36834 1.03054 8.52254C1.6877 9 2.62513 9 4.5 9H5.5C7.37487 9 8.3123 9 8.96946 8.52254C9.1817 8.36834 9.36834 8.1817 9.52254 7.96946C10 7.3123 10 6.37487 10 4.5C10 3.17564 10 2.31903 9.83172 1.69855L8.78033 2.74993C7.9642 3.56607 7.32462 4.20566 6.75849 4.6376C6.17903 5.07972 5.63266 5.33947 4.99993 5.33947C4.36721 5.33947 3.82084 5.07972 3.24137 4.6376C2.67524 4.20566 2.03566 3.56607 1.21952 2.74992L0.241927 1.77233L0.166611 1.70474Z" fill="#F8F8F8"/>
<path d="M0.5 1L0.554423 1.04503L0.757936 1.22768L1.72956 2.1993C2.57039 3.04013 3.1749 3.64352 3.69631 4.04134C4.20906 4.43255 4.59712 4.58947 4.99993 4.58947C5.40274 4.58947 5.7908 4.43255 6.30356 4.04134C6.82496 3.64352 7.42947 3.04013 8.2703 2.1993L9.42425 1.04535L9.48706 0.982895C9.33286 0.770658 9.1817 0.631657 8.96946 0.477457C8.3123 0 7.37487 0 5.5 0H4.5C2.62513 0 1.6877 0 1.03054 0.477457C0.8183 0.631657 0.654199 0.787763 0.5 1Z" fill="#F8F8F8"/>
</svg>
