<svg width="32" height="31" viewBox="0 0 32 31" fill="none" xmlns="http://www.w3.org/2000/svg">
<path fill-rule="evenodd" clip-rule="evenodd" d="M15.6094 0C7.04896 0 0.109375 6.93959 0.109375 15.5C0.109375 24.0604 7.04896 31 15.6094 31C24.1698 31 31.1094 24.0604 31.1094 15.5C31.1094 6.93959 24.1698 0 15.6094 0ZM16.2478 5.89323C18.5937 5.89323 20.8908 6.82183 22.5525 8.53242C24.2142 10.1941 25.1428 12.4423 25.1428 14.8371C25.1428 19.7734 21.1352 23.8299 16.1989 23.8299C14.7327 23.8299 13.2665 23.4878 11.9469 22.7547L7.20613 23.9766L8.47685 19.3335C7.74374 17.9651 7.30388 16.45 7.30388 14.886C7.255 9.94976 11.2627 5.89323 16.2478 5.89323ZM12.1913 21.1419L12.4845 21.2885C13.6086 21.9727 14.9282 22.3148 16.2478 22.3148C17.6163 22.3148 18.9847 21.9239 20.1088 21.1908C23.6278 19.0403 24.6541 14.495 22.5037 10.9761C20.3532 7.45719 15.8079 6.43084 12.289 8.58129C8.77009 10.7317 7.74374 15.3259 9.89419 18.7959L10.0897 19.0892L9.35658 21.875L12.1913 21.1419ZM20.0111 16.6455L20.5487 16.8899C20.6464 16.9387 20.6953 16.9876 20.6953 16.9876V17.3297C20.6464 17.5741 20.5976 17.8185 20.4998 18.0139C20.451 18.1117 20.3532 18.2094 20.2555 18.3072C20.2066 18.3561 20.1577 18.3927 20.1088 18.4294C20.06 18.466 20.0111 18.5027 19.9622 18.5516L19.8645 18.6493C19.8096 18.7042 19.7547 18.7283 19.6911 18.7561C19.6415 18.7779 19.5866 18.8019 19.5223 18.8448C19.3269 18.9426 19.0336 19.0403 18.7892 19.0403H18.3005C18.2272 19.0159 18.1417 19.0036 18.0561 18.9914C17.9706 18.9792 17.8851 18.967 17.8118 18.9426C16.4922 18.6004 15.3192 17.9651 14.2928 17.0853C14.229 16.9896 14.1443 16.9146 14.0523 16.8333C14.0035 16.7901 13.9527 16.7452 13.9019 16.6944L13.7064 16.4989C12.9244 15.7658 12.3379 14.9349 11.898 14.0063L11.8491 13.8597C11.7025 13.5176 11.6048 13.1266 11.6048 12.7356C11.6048 12.198 11.8003 11.6603 12.1424 11.2205C12.1913 11.1716 12.2279 11.1227 12.2646 11.0739C12.3012 11.025 12.3379 10.9761 12.3868 10.9272C12.4356 10.9028 12.4845 10.8661 12.5334 10.8295C12.5823 10.7928 12.6311 10.7562 12.68 10.7317L12.7289 10.6829C12.7778 10.6829 12.8266 10.6706 12.8755 10.6584C12.9244 10.6462 12.9732 10.634 13.0221 10.634H13.4131H13.5597C13.7064 10.6829 13.8041 10.7317 13.9019 10.8784C14.0485 11.1716 14.635 12.4912 14.6838 12.7356C14.7327 12.8822 14.6838 13.0777 14.5861 13.2243C14.5372 13.2732 14.5006 13.3343 14.4639 13.3954C14.4272 13.4565 14.3906 13.5176 14.3417 13.5664C14.1951 13.713 13.9996 13.9574 13.9996 13.9574C13.9507 14.0063 13.9507 14.104 13.9507 14.2018C13.9694 14.2391 13.9809 14.2693 13.9908 14.2951C14.0067 14.3369 14.0183 14.3671 14.0485 14.3973L14.0973 14.495C14.3417 14.9349 14.6838 15.3259 15.026 15.668C15.0748 15.7169 15.1359 15.7658 15.197 15.8146C15.2581 15.8635 15.3192 15.9124 15.3681 15.9612C15.7591 16.3522 16.2478 16.6455 16.7854 16.8899L17.0298 16.9876C17.0787 17.0365 17.1764 17.0853 17.2253 17.0853H17.2741C17.3719 17.0853 17.4696 17.0365 17.5185 16.9387C18.2028 16.1567 18.2516 16.1079 18.2516 16.1079C18.3494 16.059 18.4471 16.0101 18.5937 16.0101C18.6182 16.0101 18.6426 16.0223 18.6671 16.0346C18.6915 16.0468 18.7159 16.059 18.7404 16.059C19.2291 16.3034 20.0111 16.6455 20.0111 16.6455Z" fill="#F8F8F8"/>
</svg>
