<svg width="17" height="17" viewBox="0 0 17 17" fill="none" xmlns="http://www.w3.org/2000/svg">
<path d="M13.3384 10.4688C12.7842 10.3505 12.3458 10.6078 11.9576 10.8324C11.5601 11.064 10.8033 11.6771 10.3709 11.5194C8.15246 10.6069 6.06601 8.6645 5.16282 6.43825C5.00364 5.99489 5.61399 5.23422 5.84298 4.83288C6.06686 4.44354 6.31884 4.00018 6.20392 3.44276C6.10006 2.94108 4.75677 1.23194 4.28176 0.764569C3.96765 0.455844 3.64757 0.286045 3.31813 0.257746C2.07955 0.205434 0.696243 1.85797 0.453633 2.25331C-0.15502 3.0963 -0.150764 4.218 0.463848 5.57811C1.94505 9.23136 7.54721 14.7447 11.2145 16.2814C11.8904 16.5979 12.5101 16.7565 13.066 16.7565C13.6099 16.7565 14.0943 16.6047 14.5105 16.3037C14.8238 16.1228 16.5451 14.6709 16.4991 13.3991C16.4727 13.075 16.3033 12.7508 15.9986 12.437C15.5338 11.9576 13.8363 10.5743 13.3384 10.4688" fill="#314C51"/>
</svg>
