<svg width="37" height="50" viewBox="0 0 37 50" fill="none" xmlns="http://www.w3.org/2000/svg">
<path d="M30.5332 12.1255L24.6266 18.0321M30.5332 19.7197L24.6266 25.6263M30.5332 27.3138L24.6266 33.2204" stroke="#858685" stroke-width="1.5"/>
<path d="M6.90625 2L0.999666 7.90658M6.90625 9.59418L0.999666 15.5008M6.90625 17.1884L0.999666 23.0949M6.90625 25.6263L0.999666 31.5329" stroke="#858685" stroke-width="1.5"/>
<path d="M6.06445 49.2527V25.6263M11.971 7.90658L6.06445 2V9.59418M6.06445 9.59418L11.971 15.5008M6.06445 9.59418V17.1884M6.06445 17.1884L11.971 23.0949M6.06445 17.1884V25.6263M6.06445 25.6263L11.971 31.5329" stroke="black" stroke-width="1.5"/>
<path d="M29.6914 49.2526V35.7518V27.3138M35.598 18.0321L29.6914 12.1255V19.7197M29.6914 19.7197L35.598 25.6263M29.6914 19.7197V27.3138M29.6914 27.3138L35.598 33.2204" stroke="black" stroke-width="1.5"/>
</svg>
