<svg width="32" height="31" viewBox="0 0 32 31" fill="none" xmlns="http://www.w3.org/2000/svg">
<path fill-rule="evenodd" clip-rule="evenodd" d="M15.6094 0C7.04896 0 0.109375 6.93959 0.109375 15.5C0.109375 24.0604 7.04896 31 15.6094 31C24.1698 31 31.1094 24.0604 31.1094 15.5C31.1094 6.93959 24.1698 0 15.6094 0ZM15.988 5.86759C20.6148 5.88827 22.6905 7.39749 23.2033 7.86886C24.9068 9.34913 25.8537 12.6281 25.2169 17.8049C24.6565 22.3822 21.4686 23.1962 20.3928 23.4709C20.2859 23.4981 20.1999 23.5201 20.1393 23.5399C19.8499 23.635 17.2987 24.2718 13.9826 23.9948C13.6146 24.4206 13.1308 24.9747 12.7793 25.3551C12.6742 25.4684 12.5757 25.5803 12.4814 25.6873L12.4812 25.6875L12.4812 25.6875L12.4811 25.6877L12.481 25.6878C12.0007 26.2333 11.6315 26.6526 11.0716 26.4798C10.5176 26.3103 10.5465 25.4668 10.5465 25.4668L10.5506 23.3869H10.5465C5.69632 22.0224 5.76662 16.9903 5.82037 14.3068C5.87412 11.6192 6.39511 9.45664 7.87539 7.97636C10.5341 5.53681 15.988 5.86759 15.988 5.86759ZM19.8448 22.028C20.7591 21.8149 23.2965 21.2236 23.7656 17.441C24.3031 13.1118 23.5671 10.1554 22.1241 8.91497C21.6899 8.52216 19.8168 7.34373 15.9053 7.32719C15.9053 7.32719 11.2701 7.02535 9.02487 9.05969C7.77202 10.296 7.35026 12.136 7.30478 14.3771C7.30326 14.4521 7.30152 14.5295 7.29973 14.6089L7.29973 14.609L7.29972 14.609L7.29972 14.6091L7.29972 14.6093C7.2481 16.902 7.15718 20.94 11.1254 22.039C11.1254 22.039 11.1088 25.2187 11.1088 25.4998C11.1047 25.6942 11.1378 25.8265 11.2494 25.8554C11.328 25.8761 11.4479 25.8348 11.5513 25.7314C12.2046 25.0739 14.3051 22.5393 14.3051 22.5393C17.125 22.7254 19.3661 22.1672 19.6059 22.0886C19.6623 22.0705 19.7436 22.0515 19.8447 22.028L19.8448 22.028L19.8448 22.028ZM17.8981 14.4558C17.7617 14.4558 17.6459 14.3483 17.6376 14.2077C17.5921 13.3187 17.1745 12.8845 16.3227 12.839C16.178 12.8308 16.0664 12.7067 16.0746 12.562C16.0829 12.4173 16.207 12.3056 16.3517 12.3139C17.4764 12.3759 18.1049 13.021 18.1627 14.1787C18.171 14.3234 18.0594 14.4475 17.9147 14.4516C17.9064 14.4558 17.9023 14.4558 17.8981 14.4558ZM19.2327 14.9022H19.2369C19.3774 14.9022 19.4974 14.7906 19.5015 14.6459C19.5222 13.6246 19.2162 12.7604 18.5836 12.0699C17.9551 11.3835 17.0743 10.9948 15.9579 10.9121C15.8132 10.8997 15.6892 11.0072 15.6768 11.1519C15.6644 11.2966 15.7719 11.4207 15.9166 11.4331C16.9048 11.5034 17.6532 11.8259 18.1949 12.4213C18.7407 13.0167 18.997 13.7403 18.9764 14.6335C18.9722 14.7782 19.088 14.8981 19.2327 14.9022ZM20.6069 15.44C20.4622 15.44 20.3464 15.3242 20.3464 15.1795C20.334 13.5793 19.875 12.3595 18.9406 11.4457C18.0185 10.5443 16.8483 10.0854 15.4714 10.073C15.3267 10.073 15.2109 9.95307 15.2109 9.80835C15.2109 9.66363 15.3308 9.54785 15.4714 9.54785C16.9889 9.56026 18.279 10.0688 19.3003 11.0695C20.3257 12.0701 20.8509 13.4511 20.8674 15.1712C20.8715 15.3201 20.7558 15.44 20.6069 15.44ZM16.9475 17.4822C16.749 17.7262 16.381 17.6931 16.381 17.6931C13.6934 17.0109 12.978 14.2901 12.978 14.2901C12.978 14.2901 12.945 13.9221 13.1889 13.7237L13.6727 13.3391C13.9125 13.1531 14.0655 12.7024 13.8216 12.2641C13.6851 12.0201 13.4122 11.5818 13.2096 11.3048C12.9946 11.0112 12.4943 10.4117 12.4943 10.4117C12.2503 10.1264 11.8988 10.0602 11.5267 10.2545H11.5184C11.167 10.453 10.8362 10.7176 10.5302 11.0567C10.5302 11.0588 10.5292 11.0598 10.5281 11.0608C10.5271 11.0619 10.5261 11.0629 10.5261 11.065C10.2987 11.342 10.1663 11.6108 10.1333 11.8795C10.125 11.9126 10.125 11.9498 10.125 11.9994C10.125 12.1152 10.1415 12.231 10.1788 12.3468L10.1912 12.355C10.3069 12.7644 10.5964 13.4508 11.229 14.5961C11.6384 15.3404 12.056 15.9606 12.4736 16.4816C12.6927 16.7586 12.9408 17.0398 13.2261 17.3293L13.2551 17.3582L13.284 17.3871L13.313 17.4161L13.3419 17.445C13.6313 17.7345 13.9125 17.9784 14.1896 18.1976C14.7147 18.6152 15.3308 19.0328 16.075 19.4422C17.2163 20.0748 17.9026 20.3642 18.3161 20.48L18.3244 20.4924C18.4402 20.5296 18.556 20.5462 18.6717 20.5462C18.7213 20.5462 18.7586 20.5462 18.7916 20.5379C19.0563 20.509 19.3292 20.3766 19.6062 20.1451C19.6083 20.1451 19.6093 20.1441 19.6103 20.143C19.6114 20.142 19.6124 20.141 19.6145 20.141C19.9494 19.835 20.2182 19.5042 20.4166 19.1527V19.1445C20.611 18.7682 20.5448 18.4167 20.2595 18.1769C20.2554 18.1728 19.66 17.6766 19.3664 17.4616C19.0935 17.259 18.6511 16.9861 18.4071 16.8496C17.9688 16.6057 17.5181 16.7586 17.332 16.9985L16.9475 17.4822Z" fill="#F8F8F8"/>
</svg>
