<svg width="11" height="11" viewBox="0 0 11 11" fill="none" xmlns="http://www.w3.org/2000/svg">
<path d="M3.15347 0.890052C2.58748 0.369983 1.71751 0.369983 1.15152 0.890052C1.12834 0.911351 1.10359 0.936101 1.07146 0.968241L0.588639 1.45106C0.102795 1.93691 -0.101158 2.63729 0.0478921 3.30802C0.893558 7.11352 3.86557 10.0855 7.67107 10.9312C8.34179 11.0802 9.04218 10.8763 9.52803 10.3904L10.0108 9.90768C10.043 9.87552 10.0677 9.85076 10.089 9.82757C10.6091 9.26158 10.6091 8.39161 10.089 7.82562C10.0677 7.80243 10.043 7.77768 10.0108 7.74552L9.22039 6.95511C8.67161 6.40633 7.84286 6.24938 7.13142 6.55949C6.72412 6.73703 6.24966 6.64718 5.93549 6.333L4.64609 5.0436C4.33191 4.72943 4.24206 4.25497 4.4196 3.84767C4.72971 3.13623 4.57276 2.30748 4.02398 1.7587L3.23353 0.968249C3.2014 0.936106 3.17665 0.911353 3.15347 0.890052Z" fill="#F8F8F8"/>
</svg>
