<svg width="76" height="66" viewBox="0 0 76 66" fill="none" xmlns="http://www.w3.org/2000/svg">
<path fill-rule="evenodd" clip-rule="evenodd" d="M0.702708 28.2525L8.24388 0.661794L57.9048 4.32184L55.4133 12.5253H55.631L58.1799 4.1332L8.08813 0.441406L0.46875 28.3182L39.6218 65.2362L48.2276 36.9015H48.0098L39.5201 64.854L0.702708 28.2525Z" fill="#1D1F1D"/>
<path fill-rule="evenodd" clip-rule="evenodd" d="M57.3539 4.69849L54.8504 12.9414H55.9391L58.7291 3.7553L7.77579 0L0 28.4491L39.8243 66L48.7887 36.4842H47.7L39.316 64.089L1.16979 28.1203L8.55454 1.10194L57.3539 4.69849Z" fill="#1D1F1D"/>
<path d="M14.5351 29.282C13.175 29.282 12.1149 28.892 11.3549 28.112C10.5949 27.332 10.2148 26.1969 10.2148 24.7068V18.6915H11.3249V24.6618C11.3249 25.8819 11.5999 26.7919 12.1499 27.392C12.7 27.992 13.495 28.292 14.5351 28.292C15.5851 28.292 16.3851 27.992 16.9352 27.392C17.4852 26.7919 17.7602 25.8819 17.7602 24.6618V18.6915H18.8403V24.7068C18.8403 26.1969 18.4602 27.332 17.7002 28.112C16.9502 28.892 15.8951 29.282 14.5351 29.282ZM13.2 17.4915C13.02 17.4915 12.865 17.4315 12.735 17.3115C12.615 17.1915 12.555 17.0365 12.555 16.8464C12.555 16.6664 12.615 16.5164 12.735 16.3964C12.865 16.2664 13.02 16.2014 13.2 16.2014C13.37 16.2014 13.52 16.2664 13.65 16.3964C13.78 16.5164 13.845 16.6664 13.845 16.8464C13.845 17.0265 13.78 17.1815 13.65 17.3115C13.53 17.4315 13.38 17.4915 13.2 17.4915ZM15.8701 17.4915C15.6901 17.4915 15.5351 17.4315 15.4051 17.3115C15.2851 17.1815 15.2251 17.0265 15.2251 16.8464C15.2251 16.6664 15.2901 16.5164 15.4201 16.3964C15.5501 16.2664 15.7001 16.2014 15.8701 16.2014C16.0501 16.2014 16.2001 16.2664 16.3201 16.3964C16.4501 16.5164 16.5151 16.6664 16.5151 16.8464C16.5151 17.0365 16.4501 17.1915 16.3201 17.3115C16.2001 17.4315 16.0501 17.4915 15.8701 17.4915Z" fill="#1D1F1D"/>
<path d="M24.9001 25.2319L23.04 26.9419V29.192H21.975V18.0615H23.04V25.6069L27.7502 21.3017H29.0703L25.6951 24.5268L29.3853 29.192H28.0803L24.9001 25.2319Z" fill="#1D1F1D"/>
<path d="M32.8796 29.267C32.2395 29.267 31.6245 29.177 31.0345 28.997C30.4545 28.807 29.9994 28.572 29.6694 28.292L30.1494 27.452C30.4795 27.712 30.8945 27.927 31.3945 28.097C31.8945 28.257 32.4145 28.337 32.9546 28.337C33.6746 28.337 34.2046 28.227 34.5446 28.007C34.8947 27.777 35.0697 27.457 35.0697 27.0469C35.0697 26.7569 34.9747 26.5319 34.7847 26.3719C34.5947 26.2019 34.3546 26.0769 34.0646 25.9969C33.7746 25.9069 33.3896 25.8219 32.9096 25.7419C32.2695 25.6219 31.7545 25.5019 31.3645 25.3819C30.9745 25.2519 30.6395 25.0368 30.3594 24.7368C30.0894 24.4368 29.9544 24.0218 29.9544 23.4918C29.9544 22.8317 30.2294 22.2917 30.7795 21.8717C31.3295 21.4517 32.0945 21.2417 33.0746 21.2417C33.5846 21.2417 34.0946 21.3117 34.6047 21.4517C35.1147 21.5817 35.5347 21.7567 35.8647 21.9767L35.3997 22.8317C34.7497 22.3817 33.9746 22.1567 33.0746 22.1567C32.3945 22.1567 31.8795 22.2767 31.5295 22.5167C31.1895 22.7567 31.0195 23.0717 31.0195 23.4618C31.0195 23.7618 31.1145 24.0018 31.3045 24.1818C31.5045 24.3618 31.7495 24.4968 32.0395 24.5868C32.3295 24.6668 32.7296 24.7518 33.2396 24.8418C33.8696 24.9618 34.3746 25.0818 34.7547 25.2019C35.1347 25.3219 35.4597 25.5269 35.7297 25.8169C35.9997 26.1069 36.1347 26.5069 36.1347 27.0169C36.1347 27.707 35.8447 28.257 35.2647 28.667C34.6947 29.067 33.8996 29.267 32.8796 29.267Z" fill="#1D1F1D"/>
<path d="M42.2736 28.712C42.0735 28.892 41.8235 29.032 41.5235 29.132C41.2335 29.222 40.9285 29.267 40.6085 29.267C39.8684 29.267 39.2984 29.067 38.8984 28.667C38.4984 28.267 38.2984 27.702 38.2984 26.9719V22.2017H36.8883V21.3017H38.2984V19.5766H39.3634V21.3017H41.7635V22.2017H39.3634V26.9119C39.3634 27.382 39.4784 27.742 39.7084 27.992C39.9484 28.232 40.2885 28.352 40.7285 28.352C40.9485 28.352 41.1585 28.317 41.3585 28.247C41.5685 28.177 41.7485 28.077 41.8985 27.947L42.2736 28.712Z" fill="#1D1F1D"/>
<path d="M50.8191 25.5769H44.2187C44.2787 26.3969 44.5938 27.0619 45.1638 27.572C45.7338 28.072 46.4538 28.322 47.3239 28.322C47.8139 28.322 48.2639 28.237 48.674 28.067C49.084 27.887 49.439 27.627 49.739 27.287L50.339 27.977C49.989 28.397 49.549 28.717 49.019 28.937C48.4989 29.157 47.9239 29.267 47.2939 29.267C46.4838 29.267 45.7638 29.097 45.1338 28.757C44.5138 28.407 44.0287 27.927 43.6787 27.317C43.3287 26.7069 43.1537 26.0169 43.1537 25.2469C43.1537 24.4768 43.3187 23.7868 43.6487 23.1768C43.9887 22.5667 44.4487 22.0917 45.0288 21.7517C45.6188 21.4117 46.2788 21.2417 47.0089 21.2417C47.7389 21.2417 48.3939 21.4117 48.974 21.7517C49.554 22.0917 50.009 22.5667 50.339 23.1768C50.6691 23.7768 50.8341 24.4668 50.8341 25.2469L50.8191 25.5769ZM47.0089 22.1567C46.2488 22.1567 45.6088 22.4017 45.0888 22.8917C44.5788 23.3718 44.2887 24.0018 44.2187 24.7818H49.814C49.744 24.0018 49.449 23.3718 48.929 22.8917C48.4189 22.4017 47.7789 22.1567 47.0089 22.1567Z" fill="#1D1F1D"/>
<path d="M53.0166 21.3017H54.0816V29.192H53.0166V21.3017ZM53.5566 19.5766C53.3366 19.5766 53.1516 19.5016 53.0016 19.3516C52.8516 19.2016 52.7766 19.0216 52.7766 18.8115C52.7766 18.6115 52.8516 18.4365 53.0016 18.2865C53.1516 18.1365 53.3366 18.0615 53.5566 18.0615C53.7766 18.0615 53.9616 18.1365 54.1116 18.2865C54.2616 18.4265 54.3366 18.5965 54.3366 18.7965C54.3366 19.0166 54.2616 19.2016 54.1116 19.3516C53.9616 19.5016 53.7766 19.5766 53.5566 19.5766Z" fill="#1D1F1D"/>
<path d="M59.1748 29.267C58.5348 29.267 57.9198 29.177 57.3298 28.997C56.7497 28.807 56.2947 28.572 55.9647 28.292L56.4447 27.452C56.7747 27.712 57.1897 27.927 57.6898 28.097C58.1898 28.257 58.7098 28.337 59.2498 28.337C59.9699 28.337 60.4999 28.227 60.8399 28.007C61.1899 27.777 61.365 27.457 61.365 27.0469C61.365 26.7569 61.2699 26.5319 61.0799 26.3719C60.8899 26.2019 60.6499 26.0769 60.3599 25.9969C60.0699 25.9069 59.6849 25.8219 59.2048 25.7419C58.5648 25.6219 58.0498 25.5019 57.6598 25.3819C57.2698 25.2519 56.9347 25.0368 56.6547 24.7368C56.3847 24.4368 56.2497 24.0218 56.2497 23.4918C56.2497 22.8317 56.5247 22.2917 57.0747 21.8717C57.6248 21.4517 58.3898 21.2417 59.3699 21.2417C59.8799 21.2417 60.3899 21.3117 60.8999 21.4517C61.41 21.5817 61.83 21.7567 62.16 21.9767L61.695 22.8317C61.0449 22.3817 60.2699 22.1567 59.3699 22.1567C58.6898 22.1567 58.1748 22.2767 57.8248 22.5167C57.4848 22.7567 57.3148 23.0717 57.3148 23.4618C57.3148 23.7618 57.4098 24.0018 57.5998 24.1818C57.7998 24.3618 58.0448 24.4968 58.3348 24.5868C58.6248 24.6668 59.0248 24.7518 59.5349 24.8418C60.1649 24.9618 60.6699 25.0818 61.0499 25.2019C61.43 25.3219 61.755 25.5269 62.025 25.8169C62.295 26.1069 62.43 26.5069 62.43 27.0169C62.43 27.707 62.14 28.257 61.56 28.667C60.9899 29.067 60.1949 29.267 59.1748 29.267Z" fill="#1D1F1D"/>
<path d="M68.5688 28.712C68.3688 28.892 68.1188 29.032 67.8188 29.132C67.5288 29.222 67.2238 29.267 66.9038 29.267C66.1637 29.267 65.5937 29.067 65.1937 28.667C64.7937 28.267 64.5936 27.702 64.5936 26.9719V22.2017H63.1836V21.3017H64.5936V19.5766H65.6587V21.3017H68.0588V22.2017H65.6587V26.9119C65.6587 27.382 65.7737 27.742 66.0037 27.992C66.2437 28.232 66.5837 28.352 67.0238 28.352C67.2438 28.352 67.4538 28.317 67.6538 28.247C67.8638 28.177 68.0438 28.077 68.1938 27.947L68.5688 28.712Z" fill="#1D1F1D"/>
<path d="M53.5432 36.2424C54.2388 36.2424 54.7473 35.88 54.9051 35.2254H54.5252C54.4024 35.6637 54.0576 35.9092 53.5666 35.9092C52.9237 35.9092 52.4502 35.465 52.4327 34.6993H54.9343C54.9811 33.7173 54.4141 32.9692 53.5315 32.9692C52.6899 32.9692 52.0586 33.5946 52.0586 34.6058C52.0586 35.5819 52.6256 36.2424 53.5432 36.2424ZM53.5257 33.2965C54.157 33.2965 54.5369 33.8342 54.5369 34.3661H52.4444C52.5203 33.6647 52.9412 33.2965 53.5257 33.2965Z" fill="#1D1F1D"/>
<path d="M55.9343 31.9288H55.5719V36.1664H55.9343V31.9288Z" fill="#1D1F1D"/>
<path d="M58.7597 36.1664H59.1221V33.0218H58.7597V34.7928C58.7597 35.4592 58.3389 35.9151 57.842 35.9151C57.2283 35.9151 57.088 35.5176 57.088 34.9273V33.0218H56.7256V35.0266C56.7256 35.7982 57.0296 36.2424 57.7485 36.2424C58.2921 36.2424 58.6019 35.956 58.7597 35.6579V36.1664Z" fill="#1D1F1D"/>
<path d="M61.3865 33.0043C61.369 32.9984 61.3456 32.9984 61.3281 32.9984H61.2813C60.9072 32.9984 60.4922 33.2264 60.3519 33.5946V33.0218H60.0071V36.1664H60.3636V34.5181C60.3636 33.8518 60.5741 33.3842 61.2229 33.3842H61.2988C61.3281 33.3842 61.3573 33.3842 61.3865 33.39V33.0043Z" fill="#1D1F1D"/>
<path d="M61.9658 35.3773C61.9658 34.8922 62.5211 34.7168 63.7953 34.5766V34.7285C63.7953 35.617 63.2692 35.9209 62.6847 35.9209C62.2639 35.9209 61.9658 35.7105 61.9658 35.3773ZM63.8011 36.1664H64.1694C64.1518 35.8216 64.1343 35.5176 64.1343 35.1611C64.1343 34.9097 64.1401 34.6292 64.1401 34.1908C64.1401 33.2556 63.655 32.9516 62.9244 32.9516C62.2171 32.9516 61.7261 33.355 61.6385 33.9804H62.0184C62.0476 33.5654 62.3633 33.2731 62.901 33.2731C63.3511 33.2731 63.7777 33.4251 63.7777 34.144V34.2551C62.2639 34.4129 61.5625 34.6642 61.5625 35.3832C61.5625 35.9034 62.0126 36.2424 62.6029 36.2424C63.1874 36.2424 63.579 36.0203 63.7836 35.6871L63.8011 36.1664Z" fill="#1D1F1D"/>
<path d="M64.9103 36.3593C64.9103 36.7743 64.8811 36.8561 64.4895 36.8561H64.4193V37.1893H64.6122C65.1733 37.1893 65.2727 36.9964 65.2727 36.3651V33.0218H64.9103V36.3593ZM64.9103 31.9288V32.5074H65.2727V31.9288H64.9103Z" fill="#1D1F1D"/>
<path d="M66.2978 34.6058C66.2978 33.6998 66.7245 33.3024 67.3324 33.3024C67.9344 33.3024 68.3728 33.6998 68.3728 34.6058C68.3728 35.5118 67.9344 35.9092 67.3324 35.9092C66.7245 35.9092 66.2978 35.5118 66.2978 34.6058ZM65.912 34.6058C65.912 35.7514 66.5842 36.2424 67.3324 36.2424C68.0864 36.2424 68.7585 35.7514 68.7585 34.6058C68.7585 33.4602 68.0864 32.9692 67.3324 32.9692C66.5842 32.9692 65.912 33.4602 65.912 34.6058Z" fill="#1D1F1D"/>
<path d="M69.5828 34.6058C69.5828 33.6998 70.0095 33.3024 70.6173 33.3024C71.2194 33.3024 71.6577 33.6998 71.6577 34.6058C71.6577 35.5118 71.2194 35.9092 70.6173 35.9092C70.0095 35.9092 69.5828 35.5118 69.5828 34.6058ZM69.197 34.6058C69.197 35.7514 69.8692 36.2424 70.6173 36.2424C71.3713 36.2424 72.0435 35.7514 72.0435 34.6058C72.0435 33.4602 71.3713 32.9692 70.6173 32.9692C69.8692 32.9692 69.197 33.4602 69.197 34.6058Z" fill="#1D1F1D"/>
<path d="M73.0442 33.0218H72.6818V36.1664H73.0442V34.4187C73.0442 33.7524 73.4533 33.2965 73.9969 33.2965C74.6282 33.2965 74.786 33.694 74.786 34.2843V36.1664H75.1484V34.1849C75.1484 33.4134 74.8328 32.9692 74.0904 32.9692C73.5001 32.9692 73.202 33.2556 73.0442 33.5537V33.0218Z" fill="#1D1F1D"/>
</svg>
